<svg width="209" height="24" viewBox="0 0 209 24" xmlns="http://www.w3.org/2000/svg">
<path d="M0.784 23V0.599998H11.216C13.8187 0.599998 15.8453 1.10133 17.296 2.104C18.7467 3.10667 19.472 4.536 19.472 6.392C19.472 8.22667 18.7893 9.656 17.424 10.68C16.0587 11.6827 14.2453 12.184 11.984 12.184L12.592 10.84C15.1093 10.84 17.0613 11.3413 18.448 12.344C19.8347 13.3467 20.528 14.7973 20.528 16.696C20.528 18.6587 19.7813 20.2053 18.288 21.336C16.816 22.4453 14.6613 23 11.824 23H0.784ZM5.936 19.16H11.632C12.8267 19.16 13.7333 18.9253 14.352 18.456C14.9707 17.9867 15.28 17.2613 15.28 16.28C15.28 15.3413 14.9707 14.648 14.352 14.2C13.7333 13.7307 12.8267 13.496 11.632 13.496H5.936V19.16ZM5.936 9.88H10.768C11.8987 9.88 12.752 9.656 13.328 9.208C13.904 8.73867 14.192 8.056 14.192 7.16C14.192 6.264 13.904 5.592 13.328 5.144C12.752 4.67467 11.8987 4.44 10.768 4.44H5.936V9.88ZM35.3478 23.384C33.5771 23.384 31.9344 23.096 30.4198 22.52C28.9264 21.944 27.6251 21.1333 26.5158 20.088C25.4278 19.0427 24.5744 17.816 23.9557 16.408C23.3584 15 23.0598 13.464 23.0598 11.8C23.0598 10.136 23.3584 8.6 23.9557 7.192C24.5744 5.784 25.4384 4.55733 26.5477 3.512C27.6571 2.46667 28.9584 1.656 30.4518 1.08C31.9451 0.503999 33.5664 0.216 35.3158 0.216C37.0864 0.216 38.7078 0.503999 40.1798 1.08C41.6731 1.656 42.9638 2.46667 44.0518 3.512C45.1611 4.55733 46.0251 5.784 46.6438 7.192C47.2624 8.57867 47.5718 10.1147 47.5718 11.8C47.5718 13.464 47.2624 15.0107 46.6438 16.44C46.0251 17.848 45.1611 19.0747 44.0518 20.12C42.9638 21.144 41.6731 21.944 40.1798 22.52C38.7078 23.096 37.0971 23.384 35.3478 23.384ZM35.3158 18.968C36.3184 18.968 37.2358 18.7973 38.0678 18.456C38.9211 18.1147 39.6678 17.624 40.3078 16.984C40.9478 16.344 41.4384 15.5867 41.7798 14.712C42.1424 13.8373 42.3238 12.8667 42.3238 11.8C42.3238 10.7333 42.1424 9.76267 41.7798 8.888C41.4384 8.01333 40.9478 7.256 40.3078 6.616C39.6891 5.976 38.9531 5.48533 38.0998 5.144C37.2464 4.80267 36.3184 4.632 35.3158 4.632C34.3131 4.632 33.3851 4.80267 32.5318 5.144C31.6998 5.48533 30.9638 5.976 30.3238 6.616C29.6838 7.256 29.1824 8.01333 28.8198 8.888C28.4784 9.76267 28.3078 10.7333 28.3078 11.8C28.3078 12.8453 28.4784 13.816 28.8198 14.712C29.1824 15.5867 29.6731 16.344 30.2917 16.984C30.9317 17.624 31.6784 18.1147 32.5318 18.456C33.3851 18.7973 34.3131 18.968 35.3158 18.968ZM51.1643 23.352C50.7803 23.352 50.3749 23.32 49.9483 23.256C49.5429 23.192 49.0949 23.1067 48.6043 23L48.9243 18.616C49.2229 18.7013 49.5323 18.744 49.8523 18.744C50.7269 18.744 51.4096 18.392 51.9003 17.688C52.3909 16.9627 52.7429 15.928 52.9563 14.584C53.1696 13.24 53.3083 11.608 53.3723 9.688L53.6923 0.599998H70.9083V23H65.7882V3.64L66.9722 4.824H57.0843L58.1403 3.576L57.9483 9.496C57.8843 11.6933 57.7349 13.6453 57.5003 15.352C57.2656 17.0587 56.9029 18.5093 56.4123 19.704C55.9216 20.8987 55.2496 21.8053 54.3963 22.424C53.5429 23.0427 52.4656 23.352 51.1643 23.352ZM87.2228 23.384C85.4521 23.384 83.8094 23.096 82.2948 22.52C80.8014 21.944 79.5001 21.1333 78.3908 20.088C77.3028 19.0427 76.4494 17.816 75.8307 16.408C75.2334 15 74.9348 13.464 74.9348 11.8C74.9348 10.136 75.2334 8.6 75.8307 7.192C76.4494 5.784 77.3134 4.55733 78.4227 3.512C79.5321 2.46667 80.8334 1.656 82.3268 1.08C83.8201 0.503999 85.4414 0.216 87.1908 0.216C88.9614 0.216 90.5828 0.503999 92.0548 1.08C93.5481 1.656 94.8388 2.46667 95.9268 3.512C97.0361 4.55733 97.9001 5.784 98.5188 7.192C99.1374 8.57867 99.4468 10.1147 99.4468 11.8C99.4468 13.464 99.1374 15.0107 98.5188 16.44C97.9001 17.848 97.0361 19.0747 95.9268 20.12C94.8388 21.144 93.5481 21.944 92.0548 22.52C90.5828 23.096 88.9721 23.384 87.2228 23.384ZM87.1908 18.968C88.1934 18.968 89.1108 18.7973 89.9428 18.456C90.7961 18.1147 91.5428 17.624 92.1828 16.984C92.8228 16.344 93.3134 15.5867 93.6548 14.712C94.0174 13.8373 94.1988 12.8667 94.1988 11.8C94.1988 10.7333 94.0174 9.76267 93.6548 8.888C93.3134 8.01333 92.8228 7.256 92.1828 6.616C91.5641 5.976 90.8281 5.48533 89.9748 5.144C89.1214 4.80267 88.1934 4.632 87.1908 4.632C86.1881 4.632 85.2601 4.80267 84.4068 5.144C83.5748 5.48533 82.8388 5.976 82.1988 6.616C81.5588 7.256 81.0574 8.01333 80.6948 8.888C80.3534 9.76267 80.1828 10.7333 80.1828 11.8C80.1828 12.8453 80.3534 13.816 80.6948 14.712C81.0574 15.5867 81.5481 16.344 82.1667 16.984C82.8067 17.624 83.5534 18.1147 84.4068 18.456C85.2601 18.7973 86.1881 18.968 87.1908 18.968ZM118.8 0.599998H123.984V23H118.8V0.599998ZM108.624 23H103.44V0.599998H108.624V23ZM119.184 13.816H108.24V9.432H119.184V13.816ZM134.429 23V3.64L135.613 4.824H127.293V0.599998H146.717V4.824H138.397L139.549 3.64V23H134.429ZM154.74 9.624H165.524V13.656H154.74V9.624ZM155.124 18.84H167.316V23H149.972V0.599998H166.9V4.76H155.124V18.84ZM171.503 23V0.599998H181.199C183.204 0.599998 184.932 0.930665 186.383 1.592C187.833 2.232 188.953 3.16 189.743 4.376C190.532 5.592 190.927 7.04267 190.927 8.728C190.927 10.392 190.532 11.832 189.743 13.048C188.953 14.264 187.833 15.2027 186.383 15.864C184.932 16.504 183.204 16.824 181.199 16.824H174.383L176.687 14.488V23H171.503ZM176.687 15.064L174.383 12.6H180.911C182.511 12.6 183.705 12.2587 184.495 11.576C185.284 10.8933 185.679 9.944 185.679 8.728C185.679 7.49067 185.284 6.53067 184.495 5.848C183.705 5.16533 182.511 4.824 180.911 4.824H174.383L176.687 2.36V15.064ZM199.27 19.192V4.408H203.398V19.192H199.27ZM193.734 13.752V9.848H208.966V13.752H193.734Z"/>
</svg>
